<svg xmlns="http://www.w3.org/2000/svg" xmlns:xlink="http://www.w3.org/1999/xlink" version="1.1" width="1000" height="1000" viewBox="0 0 1000 1000" xml:space="preserve">
<desc>Created with Fabric.js 3.5.0</desc>
<defs>
</defs>
<rect x="0" y="0" width="100%" height="100%" fill="#ffffff"/>
<g transform="matrix(6.5876 0 0 6.5876 499.9989 499.999)" id="585260">
<ellipse style="stroke: none; stroke-width: 1; stroke-dasharray: none; stroke-linecap: butt; stroke-dashoffset: 0; stroke-linejoin: miter; stroke-miterlimit: 4; is-custom-font: none; font-file-url: none; fill: rgb(38,170,162); fill-rule: nonzero; opacity: 1;" vector-effect="non-scaling-stroke" cx="0" cy="0" rx="69" ry="68.5"/>
</g>
<g transform="matrix(12.3423 0 0 12.3423 500.0001 500.0001)" id="940078">
<g style="" vector-effect="non-scaling-stroke">
		<g transform="matrix(1 0 0 1 0 0)">
<path style="stroke: none; stroke-width: 1; stroke-dasharray: none; stroke-linecap: butt; stroke-dashoffset: 0; stroke-linejoin: miter; stroke-miterlimit: 4; is-custom-font: none; font-file-url: none; fill: none; fill-rule: nonzero; opacity: 1;" transform=" translate(-24, -24)" d="M 0 0 h 48 v 48 H 0 z" stroke-linecap="round"/>
</g>
		<g transform="matrix(1 0 0 1 0 0)">
<path style="stroke: none; stroke-width: 1; stroke-dasharray: none; stroke-linecap: butt; stroke-dashoffset: 0; stroke-linejoin: miter; stroke-miterlimit: 4; is-custom-font: none; font-file-url: none; fill: rgb(255,255,255); fill-rule: nonzero; opacity: 1;" transform=" translate(-24, -24)" d="M 15.03 42.97 C 8.5 39.87 3.81 33.52 3.1 26 h -3 C 1.12 38.32 11.42 48 24 48 c 0.45 0 0.88 -0.04 1.32 -0.07 L 17.7 40.3 l -2.67 2.67 z m 1.78 -13.05 c -0.38 0 -0.73 -0.05 -1.05 -0.17 c -0.31 -0.11 -0.58 -0.27 -0.8 -0.47 c -0.22 -0.2 -0.39 -0.45 -0.51 -0.73 c -0.12 -0.29 -0.18 -0.6 -0.18 -0.94 h -2.6 c 0 0.72 0.14 1.35 0.42 1.9 c 0.28 0.55 0.65 1.01 1.12 1.37 c 0.47 0.37 1.01 0.64 1.63 0.83 c 0.62 0.2 1.26 0.29 1.94 0.29 c 0.74 0 1.43 -0.1 2.07 -0.3 c 0.64 -0.2 1.19 -0.5 1.66 -0.89 s 0.83 -0.87 1.1 -1.44 c 0.26 -0.57 0.4 -1.22 0.4 -1.95 c 0 -0.39 -0.05 -0.76 -0.14 -1.12 c -0.1 -0.36 -0.25 -0.7 -0.45 -1.02 c -0.21 -0.32 -0.48 -0.6 -0.81 -0.86 c -0.33 -0.25 -0.74 -0.46 -1.21 -0.63 c 0.4 -0.18 0.75 -0.4 1.05 -0.66 c 0.3 -0.26 0.55 -0.54 0.75 -0.83 c 0.2 -0.3 0.35 -0.6 0.45 -0.92 c 0.1 -0.32 0.15 -0.64 0.15 -0.95 c 0 -0.73 -0.12 -1.37 -0.36 -1.92 c -0.24 -0.55 -0.58 -1.01 -1.02 -1.38 c -0.44 -0.37 -0.96 -0.65 -1.58 -0.84 c -0.64 -0.2 -1.32 -0.29 -2.06 -0.29 c -0.72 0 -1.39 0.11 -2 0.32 c -0.61 0.21 -1.13 0.51 -1.57 0.89 c -0.44 0.38 -0.78 0.83 -1.03 1.35 c -0.25 0.52 -0.37 1.09 -0.37 1.7 h 2.6 c 0 -0.34 0.06 -0.64 0.18 -0.9 c 0.12 -0.27 0.29 -0.5 0.5 -0.68 c 0.21 -0.19 0.47 -0.34 0.76 -0.44 c 0.29 -0.1 0.61 -0.16 0.95 -0.16 c 0.8 0 1.39 0.21 1.78 0.62 c 0.39 0.41 0.58 0.99 0.58 1.73 c 0 0.36 -0.05 0.68 -0.16 0.97 c -0.11 0.29 -0.27 0.54 -0.49 0.75 c -0.22 0.21 -0.5 0.37 -0.82 0.49 c -0.33 0.12 -0.72 0.18 -1.16 0.18 h -1.54 v 2.05 h 1.54 c 0.44 0 0.84 0.05 1.19 0.15 c 0.35 0.1 0.65 0.25 0.9 0.47 c 0.25 0.21 0.44 0.48 0.58 0.8 c 0.13 0.32 0.2 0.7 0.2 1.14 c 0 0.81 -0.23 1.43 -0.7 1.86 c -0.45 0.42 -1.08 0.63 -1.89 0.63 z m 17.12 -11.85 c -0.63 -0.66 -1.39 -1.17 -2.27 -1.53 c -0.89 -0.36 -1.86 -0.54 -2.93 -0.54 H 24 v 16 h 4.59 c 1.11 0 2.11 -0.18 3.02 -0.54 c 0.91 -0.36 1.68 -0.87 2.32 -1.53 c 0.64 -0.66 1.14 -1.46 1.48 -2.39 c 0.35 -0.93 0.52 -1.98 0.52 -3.14 v -0.79 c 0 -1.16 -0.18 -2.2 -0.53 -3.14 c -0.35 -0.94 -0.84 -1.74 -1.47 -2.4 z m -0.79 6.34 c 0 0.83 -0.09 1.59 -0.29 2.25 c -0.19 0.67 -0.47 1.23 -0.85 1.69 c -0.38 0.46 -0.85 0.81 -1.42 1.06 c -0.57 0.24 -1.23 0.37 -1.99 0.37 h -1.81 V 18.24 h 1.95 c 1.44 0 2.53 0.46 3.29 1.37 c 0.75 0.92 1.13 2.24 1.13 3.98 v 0.82 z M 24 0 c -0.45 0 -0.88 0.04 -1.32 0.07 L 30.3 7.7 l 2.66 -2.66 C 39.5 8.13 44.19 14.48 44.9 22 h 3 C 46.88 9.68 36.58 0 24 0 z" stroke-linecap="round"/>
</g>
</g>
</g>
</svg>