<svg width="129" height="25" viewBox="0 0 129 25" fill="none" xmlns="http://www.w3.org/2000/svg">
<path d="M0.82 20V1.8H5.058L12.598 14.176H10.362L17.694 1.8H21.932L21.984 20H17.252L17.2 9.002H18.006L12.52 18.206H10.232L4.59 9.002H5.578V20H0.82ZM32.5646 20.234C31.022 20.234 29.6526 19.922 28.4566 19.298C27.2606 18.674 26.316 17.816 25.6226 16.724C24.9466 15.6147 24.6086 14.3493 24.6086 12.928C24.6086 11.5067 24.9466 10.25 25.6226 9.158C26.316 8.066 27.2606 7.21667 28.4566 6.61C29.6526 5.986 31.022 5.674 32.5646 5.674C34.1073 5.674 35.4766 5.986 36.6726 6.61C37.886 7.21667 38.8306 8.066 39.5066 9.158C40.1826 10.25 40.5206 11.5067 40.5206 12.928C40.5206 14.3493 40.1826 15.6147 39.5066 16.724C38.8306 17.816 37.886 18.674 36.6726 19.298C35.4766 19.922 34.1073 20.234 32.5646 20.234ZM32.5646 16.308C33.1366 16.308 33.6393 16.178 34.0726 15.918C34.5233 15.658 34.8786 15.2767 35.1386 14.774C35.3986 14.254 35.5286 13.6387 35.5286 12.928C35.5286 12.2173 35.3986 11.6193 35.1386 11.134C34.8786 10.6313 34.5233 10.25 34.0726 9.99C33.6393 9.73 33.1366 9.6 32.5646 9.6C32.01 9.6 31.5073 9.73 31.0566 9.99C30.6233 10.25 30.268 10.6313 29.9906 11.134C29.7306 11.6193 29.6006 12.2173 29.6006 12.928C29.6006 13.6387 29.7306 14.254 29.9906 14.774C30.268 15.2767 30.6233 15.658 31.0566 15.918C31.5073 16.178 32.01 16.308 32.5646 16.308ZM49.045 20.234C47.7624 20.234 46.5924 19.9393 45.535 19.35C44.495 18.7433 43.663 17.9027 43.039 16.828C42.415 15.736 42.103 14.436 42.103 12.928C42.103 11.4373 42.415 10.1547 43.039 9.08C43.663 7.988 44.495 7.14733 45.535 6.558C46.5924 5.96867 47.7624 5.674 49.045 5.674C50.2584 5.674 51.281 5.934 52.113 6.454C52.9624 6.974 53.6037 7.77133 54.037 8.846C54.4704 9.92067 54.687 11.2813 54.687 12.928C54.687 14.6093 54.479 15.9873 54.063 17.062C53.647 18.1367 53.023 18.934 52.191 19.454C51.359 19.974 50.3104 20.234 49.045 20.234ZM50.085 16.308C50.6397 16.308 51.1337 16.178 51.567 15.918C52.0177 15.658 52.373 15.2767 52.633 14.774C52.893 14.254 53.023 13.6387 53.023 12.928C53.023 12.2173 52.893 11.6193 52.633 11.134C52.373 10.6313 52.0177 10.25 51.567 9.99C51.1337 9.73 50.6397 9.6 50.085 9.6C49.513 9.6 49.0017 9.73 48.551 9.99C48.1177 10.25 47.771 10.6313 47.511 11.134C47.251 11.6193 47.121 12.2173 47.121 12.928C47.121 13.6387 47.251 14.254 47.511 14.774C47.771 15.2767 48.1177 15.658 48.551 15.918C49.0017 16.178 49.513 16.308 50.085 16.308ZM53.179 20V17.582L53.205 12.928L52.945 8.274V0.707999H57.885V20H53.179ZM70.5753 20.364C69.1193 20.364 67.776 20.13 66.5453 19.662C65.3147 19.194 64.24 18.5353 63.3213 17.686C62.42 16.8193 61.718 15.814 61.2153 14.67C60.7127 13.526 60.4613 12.2693 60.4613 10.9C60.4613 9.53067 60.7127 8.274 61.2153 7.13C61.718 5.986 62.42 4.98933 63.3213 4.14C64.24 3.27333 65.3147 2.606 66.5453 2.138C67.776 1.67 69.1193 1.436 70.5753 1.436C72.0487 1.436 73.392 1.67 74.6053 2.138C75.836 2.606 76.902 3.26467 77.8033 4.114C78.7047 4.96333 79.4067 5.96867 79.9093 7.13C80.4293 8.274 80.6893 9.53067 80.6893 10.9C80.6893 12.2693 80.4293 13.5347 79.9093 14.696C79.4067 15.84 78.7047 16.8367 77.8033 17.686C76.902 18.5353 75.836 19.194 74.6053 19.662C73.392 20.13 72.0487 20.364 70.5753 20.364ZM76.5293 24.394C75.7493 24.394 75.0213 24.3073 74.3453 24.134C73.6693 23.978 73.002 23.718 72.3433 23.354C71.702 22.99 71.026 22.496 70.3153 21.872C69.622 21.248 68.842 20.4767 67.9753 19.558L73.3573 18.206C73.7907 18.8473 74.1807 19.35 74.5273 19.714C74.874 20.078 75.212 20.338 75.5413 20.494C75.888 20.65 76.252 20.728 76.6333 20.728C77.6387 20.728 78.5573 20.3033 79.3893 19.454L81.6253 22.106C80.36 23.6313 78.6613 24.394 76.5293 24.394ZM70.5753 16.1C71.2687 16.1 71.91 15.9787 72.4993 15.736C73.106 15.4933 73.626 15.1467 74.0593 14.696C74.51 14.228 74.8567 13.6733 75.0993 13.032C75.3593 12.3907 75.4893 11.68 75.4893 10.9C75.4893 10.1027 75.3593 9.392 75.0993 8.768C74.8567 8.12667 74.51 7.58067 74.0593 7.13C73.626 6.662 73.106 6.30667 72.4993 6.064C71.91 5.82133 71.2687 5.7 70.5753 5.7C69.882 5.7 69.232 5.82133 68.6253 6.064C68.036 6.30667 67.516 6.662 67.0653 7.13C66.632 7.58067 66.2853 8.12667 66.0253 8.768C65.7827 9.392 65.6613 10.1027 65.6613 10.9C65.6613 11.68 65.7827 12.3907 66.0253 13.032C66.2853 13.6733 66.632 14.228 67.0653 14.696C67.516 15.1467 68.036 15.4933 68.6253 15.736C69.232 15.9787 69.882 16.1 70.5753 16.1ZM82.9644 14.488V10.692H90.5564V14.488H82.9644ZM98.5005 9.782H106.898V13.76H98.5005V9.782ZM98.8645 20H93.7165V1.8H107.99V5.778H98.8645V20ZM107.603 20L115.637 1.8H120.707L128.767 20H123.411L117.119 4.322H119.147L112.855 20H107.603ZM111.997 16.464L113.323 12.668H122.215L123.541 16.464H111.997Z" fill="#252B42"/>
</svg>
